<?xml version="1.0" encoding="UTF-8" standalone="no"?>
<!-- Created with Inkscape (http://www.inkscape.org/) -->

<svg
   xmlns:osb="http://www.openswatchbook.org/uri/2009/osb"
   xmlns:dc="http://purl.org/dc/elements/1.1/"
   xmlns:cc="http://creativecommons.org/ns#"
   xmlns:rdf="http://www.w3.org/1999/02/22-rdf-syntax-ns#"
   xmlns:svg="http://www.w3.org/2000/svg"
   xmlns="http://www.w3.org/2000/svg"
   xmlns:sodipodi="http://sodipodi.sourceforge.net/DTD/sodipodi-0.dtd"
   xmlns:inkscape="http://www.inkscape.org/namespaces/inkscape"
   width="48"
   height="48"
   viewBox="0 0 12.700003 12.7"
   version="1.1"
   id="svg3722"
   inkscape:version="0.92.3 (2405546, 2018-03-11)"
   sodipodi:docname="edit.svg"
   inkscape:export-filename="C:\Git_Repository\jQueryProjects\Paint\icons\undo.png"
   inkscape:export-xdpi="96"
   inkscape:export-ydpi="96">
  <defs
     id="defs3716">
    <linearGradient
       id="linearGradient6009"
       osb:paint="solid"
       gradientTransform="translate(17.495267,-18.129786)">
      <stop
         style="stop-color:#83ffff;stop-opacity:1;"
         offset="0"
         id="stop6007" />
    </linearGradient>
  </defs>
  <sodipodi:namedview
     id="base"
     pagecolor="#ffffff"
     bordercolor="#666666"
     borderopacity="1.0"
     inkscape:pageopacity="0.0"
     inkscape:pageshadow="2"
     inkscape:zoom="11.2"
     inkscape:cx="17.179262"
     inkscape:cy="17.975814"
     inkscape:document-units="mm"
     inkscape:current-layer="layer1"
     showgrid="true"
     units="px"
     showguides="true"
     inkscape:guide-bbox="true"
     inkscape:window-width="1920"
     inkscape:window-height="1017"
     inkscape:window-x="-8"
     inkscape:window-y="-8"
     inkscape:window-maximized="1"
     inkscape:snap-page="false"
     inkscape:snap-grids="true"
     inkscape:snap-to-guides="true">
    <inkscape:grid
       type="xygrid"
       id="grid6454" />
    <sodipodi:guide
       position="6.6145849,6.6145833"
       orientation="0,1"
       id="guide6456"
       inkscape:locked="false" />
    <sodipodi:guide
       position="6.6145849,6.6145833"
       orientation="1,0"
       id="guide6458"
       inkscape:locked="false" />
  </sodipodi:namedview>
  <metadata
     id="metadata3719">
    <rdf:RDF>
      <cc:Work
         rdf:about="">
        <dc:format>image/svg+xml</dc:format>
        <dc:type
           rdf:resource="http://purl.org/dc/dcmitype/StillImage" />
        <dc:title />
      </cc:Work>
    </rdf:RDF>
  </metadata>
  <g
     inkscape:label="Ebene 1"
     inkscape:groupmode="layer"
     id="layer1"
     transform="translate(0,-284.29986)">
    <path
       id="rect2913"
       style="opacity:1;fill:#ff8080;fill-opacity:1;stroke:#e6e6e6;stroke-width:0.21145195;stroke-linecap:round;stroke-linejoin:round;stroke-miterlimit:4;stroke-dasharray:none;stroke-dashoffset:0;stroke-opacity:1;paint-order:normal"
       d="m 6.9171701,288.295 c -1.1317788,-0.0571 -2.6434782,0.77526 -3.8461898,2.23077 -1.6036157,1.94069 -2.0331314,4.23267 -0.9633795,5.13896 1.069752,0.90626 3.222075,0.0736 4.8256907,-1.86701 1.6036159,-1.94069 2.0331314,-4.23268 0.9633796,-5.13895 -0.2674379,-0.22658 -0.6022413,-0.34472 -0.979501,-0.36377 z"
       inkscape:connector-curvature="0" />
    <rect
       style="opacity:1;fill:#17a2b8;fill-opacity:1;stroke:#e6e6e6;stroke-width:0.21145993;stroke-linecap:round;stroke-linejoin:round;stroke-miterlimit:4;stroke-dasharray:none;stroke-dashoffset:0;stroke-opacity:1;paint-order:normal"
       id="rect2911"
       width="5.0614886"
       height="9.0884714"
       x="187.44931"
       y="211.63274"
       rx="2.5307443"
       ry="0.75835264"
       transform="matrix(0.76300086,0.64639746,-0.63698575,0.77087557,0,0)" />
    <path
       style="fill:#17a2b8;stroke:#e6e6e6;stroke-width:0.24840011px;stroke-linecap:butt;stroke-linejoin:miter;stroke-opacity:1;fill-opacity:1"
       d="m 6.0758234,286.84094 c 0,0 2.0775332,0.15468 2.7513961,0.74005 0.6441618,0.55958 1.2506345,2.46685 1.2506345,2.46685"
       id="path2935"
       inkscape:connector-curvature="0"
       sodipodi:nodetypes="csc" />
    <path
       style="fill:#ff8080;stroke:#e6e6e6;stroke-width:0.25469846px;stroke-linecap:butt;stroke-linejoin:miter;stroke-opacity:1"
       d="m 7.2499201,287.06483 -3.9254929,4.70982"
       id="path2937"
       inkscape:connector-curvature="0" />
    <path
       style="opacity:1;fill:#17a2b8;fill-opacity:1;stroke:#e6e6e6;stroke-width:0.00555338;stroke-linecap:round;stroke-linejoin:round;stroke-miterlimit:4;stroke-dasharray:none;stroke-dashoffset:0;stroke-opacity:1;paint-order:normal"
       d="m 3.0229461,295.91611 c -0.6328555,-0.0584 -1.0885547,-0.41508 -1.2830195,-1.0043 -0.082654,-0.25044 -0.1143319,-0.48643 -0.1082807,-0.80667 0.00563,-0.29776 0.044692,-0.56989 0.1288763,-0.89774 0.1672952,-0.65153 0.4784239,-1.3187 0.9265494,-1.98684 l 0.078891,-0.11762 0.00993,0.035 c 0.1540509,0.54348 0.8484489,1.37475 1.7349745,2.07695 0.695688,0.55106 1.377829,0.91673 1.8408888,0.98683 l 0.062642,0.009 -0.037518,0.0414 c -0.048582,0.0537 -0.2797073,0.27205 -0.3969737,0.37506 -0.3639065,0.31964 -0.7513127,0.59483 -1.134048,0.80557 -0.4371828,0.24072 -0.8952103,0.40403 -1.3023147,0.46435 -0.1506388,0.0223 -0.387561,0.0308 -0.5205968,0.0184 z"
       id="path2951"
       inkscape:connector-curvature="0" />
    <path
       style="fill:#17a2b8;stroke:#e6e6e6;stroke-width:0.24840011px;stroke-linecap:butt;stroke-linejoin:miter;stroke-opacity:1;fill-opacity:1"
       d="m 4.3249348,295.72161 -2.751396,0.49337 v -2.46686"
       id="path2953"
       inkscape:connector-curvature="0" />
    <path
       style="opacity:1;fill:#17a2b8;fill-opacity:1;stroke:#e6e6e6;stroke-width:0.01110676;stroke-linecap:round;stroke-linejoin:round;stroke-miterlimit:4;stroke-dasharray:none;stroke-dashoffset:0;stroke-opacity:1;paint-order:normal"
       d="m 1.7075517,295.71535 v -0.34281 l 0.069351,0.0961 c 0.1216033,0.1686 0.303731,0.3339 0.4808797,0.43645 0.051702,0.0299 0.06056,0.0389 0.044665,0.0452 -0.016526,0.006 -0.569109,0.10775 -0.5885929,0.10775 -0.00347,0 -0.0063,-0.15426 -0.0063,-0.3428 z"
       id="path2955"
       inkscape:connector-curvature="0" />
    <path
       style="fill:#ff8080;stroke:#e6e6e6;stroke-width:0.24840011px;stroke-linecap:butt;stroke-linejoin:miter;stroke-opacity:1"
       d="m 1.8236656,295.47492 c -0.038725,-0.0409 -0.077121,-0.0822 -0.1161754,-0.12293 -4.527e-4,-4.7e-4 0,9.4e-4 0,0.002 0,0.005 0,0.009 0,0.0136 0,0.002 8.83e-4,0.004 0,0.005 -2.951e-4,6e-4 -0.00138,3e-4 -0.00197,0 -0.0018,-8.9e-4 -0.00347,-0.005 -0.00395,-0.005 -4.152e-4,-9.3e-4 4.152e-4,-0.003 0,-0.004 -0.00227,-0.006 -0.00197,-0.002 -0.00197,-0.005 0,-9.4e-4 0,-0.003 0,-0.004 0,-6.4e-4 0,-0.003 0,-0.002 0,3.1e-4 1.966e-4,0.0132 0,0.0136 -0.00112,0.002 -0.00534,0.005 -0.0079,0.005 -0.00127,3.1e-4 -0.00264,0 -0.00395,0 -0.00329,0 -0.00657,0 -0.00987,0 -0.00112,0 -0.00769,1.3e-4 -0.0079,0 -0.00122,-8.2e-4 -0.00131,-0.003 -0.00197,-0.004 -6.578e-4,-9.3e-4 -0.00151,-0.003 -0.00197,-0.004 -3.602e-4,-9.4e-4 0,-0.0121 0,-0.0137 0,-6.4e-4 0,-9.3e-4 0,-0.002 0,-6.4e-4 -5.878e-4,-0.002 0,-0.002 0.00177,-8.6e-4 0.00395,0 0.00592,0 8.879e-4,0 0.00532,-3e-4 0.00592,0 8.329e-4,4.2e-4 0.00131,9.3e-4 0.00197,0.002 6.578e-4,6.5e-4 0.00131,9.4e-4 0.00197,0.002 -0.036097,-0.0405 -0.072194,-0.0812 -0.1082907,-0.12181"
       id="path2957"
       inkscape:connector-curvature="0" />
    <path
       style="fill:#ff8080;stroke:#e6e6e6;stroke-width:0.24840011px;stroke-linecap:butt;stroke-linejoin:miter;stroke-opacity:1"
       d="m 1.8236656,295.47492 c -0.040699,-0.013 -0.081025,-0.0273 -0.1220973,-0.0392 -0.00126,-3.7e-4 0,0.003 0,0.004 0,9.3e-4 0,0.003 0,0.004 0,0.0102 0,0.0195 0,0.0291 0,0.004 0,0.007 0,0.0116 0,0.002 3.252e-4,0.004 0,0.005 -3.426e-4,0.002 -0.00131,0.004 -0.00197,0.005 -0.00131,0.004 -0.00345,0.0102 -0.00395,0.0136 -6.528e-4,0.005 6.529e-4,0.0105 0,0.0156 -3.376e-4,0.003 -0.00164,0.005 -0.00197,0.007 -5.703e-4,0.005 6.503e-4,0.009 0,0.0136 -3.826e-4,0.003 -0.00159,0.005 -0.00197,0.007 -2.801e-4,0.002 3.252e-4,0.004 0,0.006 -6.853e-4,0.004 -0.00336,0.007 -0.00395,0.0116 -3.726e-4,0.003 0,0.005 0,0.007 0,0.003 0,0.005 0,0.007 0,0.0123 0,0.0246 0,0.037 0,0.0129 0,0.026 0,0.039 0,0.004 0,0.007 0,0.0116 0,9.3e-4 0,0.003 0,0.004 0,9.3e-4 -3.201e-4,0.003 0,0.004 3.577e-4,0.002 0.00162,0.003 0.00197,0.004 3.202e-4,9.4e-4 -3.201e-4,0.003 0,0.004 3.577e-4,0.002 0.00169,0.003 0.00197,0.004 7.754e-4,0.004 -7.753e-4,0.007 0,0.0117 2.877e-4,0.002 0.00162,0.003 0.00197,0.004 8.579e-4,0.004 -8.579e-4,0.008 0,0.0116 3.577e-4,0.002 0.00162,0.003 0.00197,0.004 5.103e-4,0.002 0,0.005 0,0.007 0,0.005 0,0.009 0,0.0136 0,0.007 0,0.0156 0,0.0234 0,0.002 3.878e-4,0.0102 0,0.0116 -3.577e-4,0.002 -0.00169,0.003 -0.00197,0.004 -3.877e-4,0.002 3.252e-4,0.004 0,0.006 -3.426e-4,0.002 -0.00157,0.004 -0.00197,0.005 -2.576e-4,9.3e-4 2.577e-4,0.003 0,0.004 -4.076e-4,0.002 -0.00163,0.004 -0.00197,0.005 -3.251e-4,0.002 0,0.004 0,0.005 0,0.005 0,0.009 0,0.0137 0,0.0123 0,0.0246 0,0.037 0,0.005 0,0.009 0,0.0136 0,0.003 -3.277e-4,0.006 0,0.0102 3.327e-4,0.004 0.00161,0.006 0.00197,0.0102 2.902e-4,0.003 -3.277e-4,0.005 0,0.007 3.377e-4,0.003 0.00159,0.006 0.00197,0.007 2.802e-4,0.002 -2.801e-4,0.004 0,0.005 3.828e-4,0.003 0.00153,0.005 0.00197,0.007 2.164e-4,9.3e-4 -2.575e-4,0.003 0,0.004 4.077e-4,0.002 0.00157,0.004 0.00197,0.006 2.577e-4,9.3e-4 0,0.003 0,0.004 0,0.003 0,0.005 0,0.007 0,6.4e-4 -2.951e-4,9.3e-4 0,0.002 4.152e-4,8.3e-4 0.00168,9.4e-4 0.00197,0.002 4.153e-4,9.4e-4 0,0.003 0,0.004 0,9.3e-4 0,0.003 0,0.004 0,0.005 0,0.009 0,0.0136 0,0.006 0,0.0129 0,0.0195 0,0.002 3.152e-4,0.009 0,0.0102 -4.152e-4,8.2e-4 -0.00156,9.3e-4 -0.00197,0.002 -2.951e-4,5.9e-4 0,9.3e-4 0,0.002 0,9.2e-4 4.152e-4,0.003 0,0.004 -2.951e-4,8.6e-4 -0.00168,9.3e-4 -0.00197,0.002 -3.527e-4,9.4e-4 0,0.006 0,0.007 0,0.006 0,0.0104 0,0.0156 0,0.006 0,0.0129 0,0.0195 0,0.002 0,0.004 0,0.005 0,6.4e-4 5.228e-4,0.003 0,0.002 -0.041022,-0.0311 -0.081404,-0.0628 -0.122107,-0.0943"
       id="path2959"
       inkscape:connector-curvature="0" />
    <path
       inkscape:connector-curvature="0"
       id="path2967"
       d="m 9.6732725,288.95116 -4.0389207,4.85056"
       style="fill:#ff8080;stroke:#e6e6e6;stroke-width:0.26218364px;stroke-linecap:butt;stroke-linejoin:miter;stroke-opacity:1" />
    <path
       style="fill:#ff8080;stroke:#e6e6e6;stroke-width:0.26936826px;stroke-linecap:butt;stroke-linejoin:miter;stroke-opacity:1"
       d="m 4.2880449,292.99329 4.5774434,-5.38951"
       id="path2969"
       inkscape:connector-curvature="0" />
  </g>
</svg>
