<?xml version="1.0" encoding="UTF-8" standalone="no"?>
<!-- Created with Inkscape (http://www.inkscape.org/) -->

<svg
   xmlns:osb="http://www.openswatchbook.org/uri/2009/osb"
   xmlns:dc="http://purl.org/dc/elements/1.1/"
   xmlns:cc="http://creativecommons.org/ns#"
   xmlns:rdf="http://www.w3.org/1999/02/22-rdf-syntax-ns#"
   xmlns:svg="http://www.w3.org/2000/svg"
   xmlns="http://www.w3.org/2000/svg"
   xmlns:sodipodi="http://sodipodi.sourceforge.net/DTD/sodipodi-0.dtd"
   xmlns:inkscape="http://www.inkscape.org/namespaces/inkscape"
   width="48"
   height="48"
   viewBox="0 0 12.700003 12.7"
   version="1.1"
   id="svg3722"
   inkscape:version="0.92.3 (2405546, 2018-03-11)"
   sodipodi:docname="pincel.svg"
   inkscape:export-filename="C:\Git_Repository\jQueryProjects\Paint\icons\undo.png"
   inkscape:export-xdpi="96"
   inkscape:export-ydpi="96">
  <defs
     id="defs3716">
    <linearGradient
       id="linearGradient6009"
       osb:paint="solid"
       gradientTransform="translate(17.495267,-18.129786)">
      <stop
         style="stop-color:#83ffff;stop-opacity:1;"
         offset="0"
         id="stop6007" />
    </linearGradient>
  </defs>
  <sodipodi:namedview
     id="base"
     pagecolor="#ffffff"
     bordercolor="#666666"
     borderopacity="1.0"
     inkscape:pageopacity="0.0"
     inkscape:pageshadow="2"
     inkscape:zoom="11.2"
     inkscape:cx="30.270697"
     inkscape:cy="20.860538"
     inkscape:document-units="mm"
     inkscape:current-layer="layer1"
     showgrid="true"
     units="px"
     showguides="true"
     inkscape:guide-bbox="true"
     inkscape:window-width="1920"
     inkscape:window-height="1057"
     inkscape:window-x="-8"
     inkscape:window-y="-8"
     inkscape:window-maximized="1"
     inkscape:snap-page="false"
     inkscape:snap-grids="true"
     inkscape:snap-to-guides="true">
    <inkscape:grid
       type="xygrid"
       id="grid6454" />
    <sodipodi:guide
       position="6.6145849,6.6145833"
       orientation="0,1"
       id="guide6456"
       inkscape:locked="false" />
    <sodipodi:guide
       position="6.6145849,6.6145833"
       orientation="1,0"
       id="guide6458"
       inkscape:locked="false" />
  </sodipodi:namedview>
  <metadata
     id="metadata3719">
    <rdf:RDF>
      <cc:Work
         rdf:about="">
        <dc:format>image/svg+xml</dc:format>
        <dc:type
           rdf:resource="http://purl.org/dc/dcmitype/StillImage" />
        <dc:title></dc:title>
      </cc:Work>
    </rdf:RDF>
  </metadata>
  <g
     inkscape:label="Ebene 1"
     inkscape:groupmode="layer"
     id="layer1"
     transform="translate(0,-284.29986)">
    <g
       id="g2986"
       transform="matrix(1.0176808,0,0,1.018489,-0.02013712,-5.186199)">
      <path
         inkscape:connector-curvature="0"
         d="m 6.8167811,288.15353 c -1.1121157,-0.0561 -2.5975514,0.76118 -3.7793676,2.19027 -1.5757551,1.90546 -1.9978085,4.15584 -0.9466421,5.04567 1.0511665,0.88981 3.1660959,0.0723 4.741851,-1.83311 1.5757553,-1.90546 1.9978085,-4.15585 0.9466422,-5.04567 -0.2627915,-0.22246 -0.5917782,-0.33846 -0.9624835,-0.35716 z"
         style="opacity:1;fill:#ffffff;fill-opacity:1;stroke:#000000;stroke-width:0.20769581;stroke-linecap:round;stroke-linejoin:round;stroke-miterlimit:4;stroke-dasharray:none;stroke-dashoffset:0;stroke-opacity:1;paint-order:normal"
         id="rect2913" />
      <rect
         transform="matrix(0.76325387,0.6460987,-0.63728622,0.77062719,0,0)"
         ry="0.74482596"
         rx="2.4859519"
         y="211.73186"
         x="187.39214"
         height="8.9263611"
         width="4.9719038"
         id="rect2911"
         style="opacity:1;fill:#ffffff;fill-opacity:1;stroke:#000000;stroke-width:0.20770268;stroke-linecap:round;stroke-linejoin:round;stroke-miterlimit:4;stroke-dasharray:none;stroke-dashoffset:0;stroke-opacity:1;paint-order:normal" />
      <rect
         ry="0.24220705"
         rx="2.2573078"
         y="295.9639"
         x="1.0583333"
         height="0.24220705"
         width="9.0939083"
         id="rect2933"
         style="opacity:1;fill:#000000;fill-opacity:1;stroke:#000000;stroke-width:0.23214541;stroke-linecap:round;stroke-linejoin:round;stroke-miterlimit:4;stroke-dasharray:none;stroke-dashoffset:0;stroke-opacity:1;paint-order:normal" />
      <path
         sodipodi:nodetypes="csc"
         inkscape:connector-curvature="0"
         id="path2935"
         d="m 5.9900516,286.72586 c 0,0 2.0414389,0.15188 2.7035944,0.72662 0.6329704,0.54942 1.2289065,2.42207 1.2289065,2.42207"
         style="fill:none;stroke:#000000;stroke-width:0.24398763px;stroke-linecap:butt;stroke-linejoin:miter;stroke-opacity:1" />
      <path
         inkscape:connector-curvature="0"
         id="path2937"
         d="m 7.14375,286.94569 -3.8572929,4.62432"
         style="fill:none;stroke:#000000;stroke-width:0.25017411px;stroke-linecap:butt;stroke-linejoin:miter;stroke-opacity:1" />
      <path
         inkscape:connector-curvature="0"
         id="path2951"
         d="m 2.9902138,295.63629 c -0.6218605,-0.0573 -1.0696425,-0.40755 -1.2607288,-0.98607 -0.081218,-0.24589 -0.1123455,-0.4776 -0.1063994,-0.79203 0.00553,-0.29235 0.043916,-0.55954 0.1266372,-0.88144 0.1643887,-0.6397 0.470112,-1.29476 0.9104519,-1.95077 l 0.07752,-0.11549 0.00976,0.0344 c 0.1513745,0.53361 0.8337083,1.34979 1.7048317,2.03925 0.6836014,0.54105 1.3538912,0.90008 1.8089059,0.96891 l 0.061554,0.009 -0.036866,0.0407 c -0.047738,0.0527 -0.2748477,0.26711 -0.3900768,0.36825 -0.3575841,0.31384 -0.7382597,0.58404 -1.1143455,0.79095 -0.4295873,0.23635 -0.8796572,0.3967 -1.2796888,0.45592 -0.1480216,0.0219 -0.3808276,0.0302 -0.5115521,0.0181 z"
         style="opacity:1;fill:#000000;fill-opacity:1;stroke:#000000;stroke-width:0.00545473;stroke-linecap:round;stroke-linejoin:round;stroke-miterlimit:4;stroke-dasharray:none;stroke-dashoffset:0;stroke-opacity:1;paint-order:normal" />
      <path
         inkscape:connector-curvature="0"
         id="path2953"
         d="m 4.2695823,295.44532 -2.7035943,0.48441 v -2.42207"
         style="fill:none;stroke:#000000;stroke-width:0.24398763px;stroke-linecap:butt;stroke-linejoin:miter;stroke-opacity:1" />
      <path
         inkscape:connector-curvature="0"
         id="path2955"
         d="m 1.6976726,295.43917 v -0.33658 l 0.068146,0.0944 c 0.1194906,0.16554 0.2984541,0.32784 0.4725251,0.42853 0.050804,0.0294 0.059508,0.0382 0.043889,0.0444 -0.016239,0.006 -0.5592215,0.10579 -0.5783669,0.10579 -0.00341,0 -0.00619,-0.15146 -0.00619,-0.33658 z"
         style="opacity:1;fill:#000000;fill-opacity:1;stroke:#000000;stroke-width:0.01090946;stroke-linecap:round;stroke-linejoin:round;stroke-miterlimit:4;stroke-dasharray:none;stroke-dashoffset:0;stroke-opacity:1;paint-order:normal" />
      <path
         inkscape:connector-curvature="0"
         id="path2957"
         d="m 1.8117692,295.20311 c -0.038052,-0.0402 -0.075781,-0.0807 -0.114157,-0.1207 -4.449e-4,-4.6e-4 0,9.2e-4 0,0.002 0,0.005 0,0.009 0,0.0134 0,0.002 8.676e-4,0.004 0,0.005 -2.9e-4,5.9e-4 -0.00136,3e-4 -0.00194,0 -0.00177,-8.7e-4 -0.00341,-0.005 -0.00388,-0.005 -4.08e-4,-9.2e-4 4.08e-4,-0.003 0,-0.004 -0.00223,-0.006 -0.00194,-0.002 -0.00194,-0.005 0,-9.2e-4 0,-0.003 0,-0.004 0,-6.3e-4 0,-0.003 0,-0.002 0,3.1e-4 1.932e-4,0.013 0,0.0134 -0.0011,0.002 -0.00525,0.005 -0.00776,0.005 -0.00125,3.1e-4 -0.00259,0 -0.00388,0 -0.00323,0 -0.00646,0 -0.0097,0 -0.0011,0 -0.00756,1.3e-4 -0.00776,0 -0.0012,-8e-4 -0.00129,-0.003 -0.00194,-0.004 -6.464e-4,-9.2e-4 -0.00148,-0.003 -0.00194,-0.004 -3.539e-4,-9.2e-4 0,-0.0119 0,-0.0134 0,-6.3e-4 0,-9.1e-4 0,-0.002 0,-6.3e-4 -5.776e-4,-0.002 0,-0.002 0.00174,-8.4e-4 0.00388,0 0.00582,0 8.725e-4,0 0.00523,-2.9e-4 0.00582,0 8.184e-4,4.1e-4 0.00129,9.2e-4 0.00194,0.002 6.464e-4,6.3e-4 0.00129,9.2e-4 0.00194,0.002 -0.03547,-0.0398 -0.07094,-0.0797 -0.1064093,-0.1196"
         style="fill:none;stroke:#000000;stroke-width:0.24398763px;stroke-linecap:butt;stroke-linejoin:miter;stroke-opacity:1" />
      <path
         inkscape:connector-curvature="0"
         id="path2959"
         d="m 1.8117692,295.20311 c -0.039992,-0.0128 -0.079617,-0.0268 -0.119976,-0.0385 -0.00124,-3.6e-4 0,0.003 0,0.004 0,9.1e-4 0,0.003 0,0.004 0,0.01 0,0.0191 0,0.0286 0,0.004 0,0.007 0,0.0114 0,0.002 3.195e-4,0.004 0,0.005 -3.367e-4,0.002 -0.00129,0.004 -0.00194,0.005 -0.00129,0.004 -0.00339,0.01 -0.00388,0.0134 -6.415e-4,0.005 6.415e-4,0.0103 0,0.0153 -3.318e-4,0.003 -0.00161,0.005 -0.00194,0.007 -5.604e-4,0.005 6.39e-4,0.009 0,0.0134 -3.76e-4,0.003 -0.00156,0.005 -0.00194,0.007 -2.753e-4,0.002 3.195e-4,0.004 0,0.006 -6.734e-4,0.004 -0.0033,0.007 -0.00388,0.0114 -3.662e-4,0.003 0,0.005 0,0.007 0,0.003 0,0.005 0,0.007 0,0.0121 0,0.0242 0,0.0363 0,0.0127 0,0.0255 0,0.0383 0,0.004 0,0.007 0,0.0114 0,9.1e-4 0,0.003 0,0.004 0,9.1e-4 -3.146e-4,0.003 0,0.004 3.515e-4,0.002 0.00159,0.003 0.00194,0.004 3.146e-4,9.2e-4 -3.146e-4,0.003 0,0.004 3.515e-4,0.002 0.00166,0.003 0.00194,0.004 7.619e-4,0.004 -7.619e-4,0.007 0,0.0115 2.827e-4,0.002 0.00159,0.003 0.00194,0.004 8.43e-4,0.004 -8.43e-4,0.008 0,0.0114 3.515e-4,0.002 0.00159,0.003 0.00194,0.004 5.014e-4,0.002 0,0.005 0,0.007 0,0.005 0,0.009 0,0.0134 0,0.007 0,0.0153 0,0.023 0,0.002 3.81e-4,0.01 0,0.0114 -3.515e-4,0.002 -0.00166,0.003 -0.00194,0.004 -3.81e-4,0.002 3.195e-4,0.004 0,0.006 -3.367e-4,0.002 -0.00154,0.004 -0.00194,0.005 -2.532e-4,9.1e-4 2.532e-4,0.003 0,0.004 -4.006e-4,0.002 -0.0016,0.004 -0.00194,0.005 -3.195e-4,0.002 0,0.004 0,0.005 0,0.005 0,0.009 0,0.0134 0,0.0121 0,0.0242 0,0.0363 0,0.005 0,0.009 0,0.0134 0,0.003 -3.22e-4,0.006 0,0.01 3.269e-4,0.004 0.00158,0.006 0.00194,0.01 2.851e-4,0.003 -3.22e-4,0.005 0,0.007 3.318e-4,0.003 0.00156,0.006 0.00194,0.007 2.753e-4,0.002 -2.753e-4,0.004 0,0.005 3.761e-4,0.003 0.0015,0.005 0.00194,0.007 2.126e-4,9.2e-4 -2.531e-4,0.003 0,0.004 4.006e-4,0.002 0.00154,0.004 0.00194,0.006 2.532e-4,9.1e-4 0,0.003 0,0.004 0,0.003 0,0.005 0,0.007 0,6.3e-4 -2.9e-4,9.2e-4 0,0.002 4.08e-4,8.1e-4 0.00165,9.2e-4 0.00194,0.002 4.08e-4,9.2e-4 0,0.003 0,0.004 0,9.1e-4 0,0.003 0,0.004 0,0.005 0,0.009 0,0.0134 0,0.006 0,0.0127 0,0.0191 0,0.002 3.097e-4,0.009 0,0.01 -4.08e-4,8e-4 -0.00153,9.1e-4 -0.00194,0.002 -2.9e-4,5.8e-4 0,9.1e-4 0,0.002 0,9.1e-4 4.08e-4,0.003 0,0.004 -2.9e-4,8.4e-4 -0.00165,9.1e-4 -0.00194,0.002 -3.466e-4,9.2e-4 0,0.006 0,0.007 0,0.006 0,0.0102 0,0.0153 0,0.006 0,0.0127 0,0.0191 0,0.002 0,0.004 0,0.005 0,6.3e-4 5.137e-4,0.003 0,0.002 -0.040309,-0.0305 -0.07999,-0.0617 -0.1199856,-0.0926"
         style="fill:none;stroke:#000000;stroke-width:0.24398763px;stroke-linecap:butt;stroke-linejoin:miter;stroke-opacity:1" />
      <path
         inkscape:connector-curvature="0"
         id="path2961"
         d="m 1.565988,295.68752 c 0.042582,0.0315 0.084196,0.0643 0.1277449,0.0945 0.00167,9.2e-4 0.00388,-9.1e-4 0.00582,-0.002 0.00194,-6.3e-4 0.00379,-0.002 0.00582,-0.002 0.00702,-8.7e-4 0.016249,8.7e-4 0.023276,0 0.00265,-3.2e-4 0.00514,-0.002 0.00776,-0.002 0.0045,-8e-4 0.00905,-9.2e-4 0.013578,-0.002 0.00425,-5.6e-4 0.024219,-0.003 0.029095,-0.004 0.00523,-9.2e-4 0.010258,-0.003 0.015517,-0.004 0.0034,-5.6e-4 0.032602,-0.003 0.036854,-0.004 0.0066,-0.002 0.012765,-0.005 0.019396,-0.005 0.00701,-9.1e-4 0.014227,-9.1e-4 0.021336,-0.002 0.00647,-6e-4 0.012971,-9.1e-4 0.019396,-0.002 0.00652,-9.2e-4 0.012893,-0.003 0.019396,-0.004 0.034745,-0.005 -0.00631,0.003 0.036854,-0.004 0.0059,-8.8e-4 0.011587,-0.003 0.017457,-0.004 0.00802,-0.002 0.027713,-0.003 0.034914,-0.004 0.0048,-5.4e-4 0.023732,-0.003 0.029095,-0.004 0.00649,-9.1e-4 0.012916,-0.003 0.019396,-0.004 0.00386,-7.1e-4 0.00778,-9.2e-4 0.011638,-0.002 0.00648,-9.2e-4 0.012883,-0.003 0.019396,-0.004 0.00579,-9e-4 0.011631,-9.2e-4 0.017457,-0.002 0.00711,-7.1e-4 0.014301,-7.1e-4 0.021337,-0.002 0.00788,-9.2e-4 0.015422,-0.005 0.023276,-0.005 0.010308,-0.002 0.032566,-0.005 0.044612,-0.005 0.00711,-7e-4 0.014348,-4.6e-4 0.021336,-0.002 0.00541,-9.2e-4 0.010277,-0.004 0.015517,-0.005 0.00893,-0.003 0.018158,-0.005 0.027156,-0.007 0.010606,-0.004 0.014034,-0.005 0.025216,-0.007 0.00384,-8.7e-4 0.00778,-9.2e-4 0.011638,-0.002 0.010914,-0.002 0.0061,-0.003 0.019396,-0.004 0.00257,-2.4e-4 0.00521,4.1e-4 0.00776,0 0.00142,-2.3e-4 0.00246,-0.002 0.00388,-0.002 0.0019,-3.6e-4 0.00394,4.6e-4 0.00582,0 8.873e-4,-2.2e-4 0.00107,-0.002 0.00194,-0.002 0.00123,-4.2e-4 0.00266,4.1e-4 0.00388,0 8.676e-4,-2.9e-4 0.00129,-9.2e-4 0.00194,-0.002 0.00129,0 0.00263,3.3e-4 0.00388,0 0.00469,-9.1e-4 0.00449,-0.004 0.00776,-0.005 0.014063,-0.007 -0.00307,0.002 0.00582,-0.004 0.0012,-8e-4 0.00268,-9.1e-4 0.00388,-0.002 7.619e-4,-5e-4 0.00129,-9.2e-4 0.00194,-0.002 6.464e-4,-6.3e-4 0.00153,-9.2e-4 0.00194,-0.002 2.9e-4,-5.8e-4 0,-9.2e-4 0,-0.002 0,-6.3e-4 0,-9.2e-4 0,-0.002 0,-6.4e-4 0,-9.2e-4 0,-0.002 0,-6.4e-4 2.9e-4,-9.2e-4 0,-0.002 -4.08e-4,-7.9e-4 -0.00129,-9.1e-4 -0.00194,-0.002 -6.464e-4,-6.3e-4 -0.00118,-0.002 -0.00194,-0.002 -0.0012,-7.9e-4 -0.00268,-9.1e-4 -0.00388,-0.002 -0.00355,-0.003 -1.935e-4,-0.003 -0.00582,-0.004 -0.00125,-3.1e-4 -0.00258,0 -0.00388,0 -0.00388,0 -0.00776,0 -0.011638,0 -0.00388,0 -0.00776,0 -0.011638,0 -0.00129,0 -0.00263,-3.1e-4 -0.00388,0 -0.0014,3.5e-4 -0.00254,0.002 -0.00388,0.002 -0.00189,7.5e-4 -0.00399,9.2e-4 -0.00582,0.002 -0.00103,5.1e-4 -0.00479,0.005 -0.00582,0.005 -6.463e-4,6.4e-4 -0.00107,0.002 -0.00194,0.002 -0.00123,4.1e-4 -0.00258,0 -0.00388,0 -0.00129,0 -0.00258,0 -0.00388,0 -6.464e-4,0 -0.00221,-5.8e-4 -0.00194,0 0.00548,0.0114 0.012003,0.0224 0.018003,0.0336"
         style="fill:none;stroke:#000000;stroke-width:0.24398763px;stroke-linecap:butt;stroke-linejoin:miter;stroke-opacity:1" />
      <path
         transform="matrix(0.26458333,0,0,0.26458333,0,284.29986)"
         inkscape:connector-curvature="0"
         id="path2963"
         d="m 10.467727,43.614349 0.206474,-0.03866 0.234375,0.02852 c 0.128906,0.01569 0.251953,0.02939 0.273437,0.03046 0.08833,0.0044 -0.382765,0.01751 -0.641741,0.01791 l -0.279018,4.26e-4 z"
         style="opacity:1;fill:#000000;fill-opacity:1;stroke:#000000;stroke-width:0.01117829;stroke-linecap:round;stroke-linejoin:round;stroke-miterlimit:4;stroke-dasharray:none;stroke-dashoffset:0;stroke-opacity:1;paint-order:normal" />
      <path
         inkscape:connector-curvature="0"
         id="path2965"
         d="m 2.6458333,295.94153 c 0.037404,-0.0281 0.074561,-0.0566 0.1122116,-0.0845 0.00225,-0.002 -0.00373,0.004 -0.00591,0.006 -0.00277,0.002 -0.00569,0.004 -0.00886,0.006 -0.00474,0.002 -0.010163,0.003 -0.014764,0.006 -0.00241,0.001 -0.00332,0.005 -0.00591,0.006 -0.00274,10e-4 -0.00596,-5.8e-4 -0.00886,0 -0.00217,4.3e-4 -0.00386,0.002 -0.00591,0.003 -0.00937,0.004 -0.011724,0.003 -0.020672,0.003 -0.00196,0 -0.00404,6.4e-4 -0.00591,0 -0.00209,-6.9e-4 -0.00415,-0.002 -0.00591,-0.003 -0.00843,-0.006 -0.00573,-0.007 -0.00886,-0.0177 -8.466e-4,-0.003 -0.00243,-0.006 -0.00295,-0.009 -8.202e-4,-0.005 0,-0.01 0,-0.0148 0,-0.002 0,-0.004 0,-0.006 0,-0.002 -0.0014,-0.005 0,-0.006 0.0022,-0.002 0.00587,-0.002 0.00886,-0.003 0.013679,-0.004 0.00965,-0.003 0.023625,-0.003 0.011811,0 0.023625,0 0.035435,0 0.00865,0 0.018381,-7.6e-4 0.026576,0.003 0.011372,0.005 0.026067,0.0191 0.035435,0.0266 0.00384,0.003 0.00861,0.005 0.011811,0.009 0.00287,0.003 0.00394,0.008 0.00591,0.0118 9.789e-4,0.002 0.00241,0.004 0.00295,0.006 4.763e-4,0.002 -4.762e-4,0.004 0,0.006 5.292e-4,0.002 0.00225,0.004 0.00295,0.006 3.175e-4,9.2e-4 0,0.002 0,0.003 0,9.8e-4 8.731e-4,0.003 0,0.003 -0.00363,0.002 -0.00778,0.002 -0.011811,0.003 -0.00488,6e-4 -0.00984,0 -0.014764,0 -0.00295,0 -0.00603,8.4e-4 -0.00886,0 -0.00718,-0.002 -0.01356,-0.006 -0.020672,-0.009 -0.0077,-0.003 -0.015923,-0.003 -0.023625,-0.006 -0.010057,-0.003 -0.019759,-0.008 -0.029529,-0.0118 -0.012345,-0.005 -0.038136,-0.0167 -0.0502,-0.0236 -0.048344,-0.0276 -0.00159,-0.001 -0.023624,-0.0177 -0.00614,-0.005 -0.00886,-10e-4 -0.00886,-0.0118 0,-0.002 -6.641e-4,-0.0145 0,-0.0148 0.0056,-0.002 0.011812,0 0.017718,0 0.014765,0 0.029529,0 0.044294,0 0.022733,0 0.033099,-8.8e-4 0.056106,0.003 0.00801,0.001 0.016087,0.003 0.023625,0.006 0.013221,0.005 0.030007,0.0187 0.041341,0.0266 0.012417,0.009 0.00538,0.002 0.014764,0.0118 9.79e-4,9.8e-4 0.00233,0.002 0.00295,0.003 4.498e-4,8.8e-4 0,0.002 0,0.003 0,9.8e-4 0,0.002 0,0.003 0,9.8e-4 6.879e-4,0.002 0,0.003 -0.00405,0.004 -0.00974,0.003 -0.014764,0.003 -0.00196,0 -0.00415,8.8e-4 -0.00591,0 -8.731e-4,-4.5e-4 0,-0.002 0,-0.003 0,-9.8e-4 0,-0.002 0,-0.003 0,-0.002 -0.0014,-0.005 0,-0.006 0.0014,-10e-4 0.00396,2.9e-4 0.00591,0 0.00497,-7.1e-4 0.00977,-0.002 0.014764,-0.003 0.00588,-5.3e-4 0.011811,0 0.017717,0 0.014986,0 0.032511,-9.8e-4 0.047247,0.003 0.00724,0.002 0.01356,0.006 0.020672,0.009 0.03332,0.0111 0.00243,-0.005 0.020672,0.009 0.00177,10e-4 0.00435,10e-4 0.00591,0.003 0.00292,0.003 -0.00284,0.004 -0.00591,0.006 -0.00525,0.003 -0.00868,0.005 -0.014764,0.006 -0.00289,5.9e-4 -0.00591,0 -0.00886,0 -0.00196,0 -0.00404,6.4e-4 -0.00591,0 -0.00516,-0.002 -0.00304,-0.01 0,-0.0118 0.00249,-0.002 0.00579,-0.002 0.00886,-0.003 0.00291,-4.8e-4 0.00595,4.8e-4 0.00886,0 0.00307,-5e-4 0.00578,-0.003 0.00886,-0.003 0.0039,-5.6e-4 0.00787,0 0.011811,0 0.00394,0 0.00787,0 0.011811,0 0.00591,0 0.011811,0 0.017716,0 0.00492,0 0.00986,-4.5e-4 0.014764,0 0.00596,5.3e-4 0.011872,0.002 0.017716,0.003 0.00304,6.9e-4 0.00597,0.002 0.00886,0.003 0.00204,8.2e-4 0.00746,0.001 0.00591,0.003 -0.00451,0.005 -0.011102,-0.002 -0.014764,-0.003 -0.0019,-4.7e-4 -0.00415,8.8e-4 -0.00591,0 -0.00249,-10e-4 -0.00352,-0.004 -0.00591,-0.006 -0.00267,-0.002 -0.00619,-0.001 -0.00886,-0.003 -0.00319,-0.002 -0.010985,-0.0106 -0.011811,-0.0148 -5.821e-4,-0.003 0,-0.0139 0,-0.0177 0,-9.7e-4 -4.498e-4,-0.002 0,-0.003 6.35e-4,-0.001 0.00196,-0.002 0.00295,-0.003 9.789e-4,-9.8e-4 0.00172,-0.002 0.00295,-0.003 8.731e-4,-4.5e-4 0.00295,-9.8e-4 0.00295,0 0,9.7e-4 -0.00196,0 -0.00295,0 -0.00295,0 -0.00591,0 -0.00886,0 -0.00196,0 -0.00394,0 -0.00591,0 -0.00295,0 -0.00591,0 -0.00886,0 -0.00196,0 -0.00767,-8.8e-4 -0.00591,0 0.00278,0.001 0.00597,0.002 0.00886,0.003 0.00204,8.2e-4 0.00386,0.002 0.00591,0.003 0.00289,10e-4 0.00607,0.002 0.00886,0.003 0.00124,6.4e-4 0.0018,0.002 0.00295,0.003 0.00575,0.004 0.00542,0.003 0.011811,0.003 0.00506,0 -8.467e-4,0 -0.00591,0 -0.00394,0 -0.00787,0 -0.011811,0 -9.79e-4,0 -0.00246,-8.5e-4 -0.00295,0 -0.018856,0.0326 -0.036225,0.0661 -0.054336,0.0992"
         style="fill:none;stroke:#000000;stroke-width:0.26458332px;stroke-linecap:butt;stroke-linejoin:miter;stroke-opacity:1" />
      <path
         style="fill:none;stroke:#000000;stroke-width:0.25752631px;stroke-linecap:butt;stroke-linejoin:miter;stroke-opacity:1"
         d="m 9.525,288.79778 -3.96875,4.7625"
         id="path2967"
         inkscape:connector-curvature="0" />
      <path
         inkscape:connector-curvature="0"
         id="path2969"
         d="m 4.2333333,292.76653 4.4979166,-5.29167"
         style="fill:none;stroke:#000000;stroke-width:0.26458332px;stroke-linecap:butt;stroke-linejoin:miter;stroke-opacity:1" />
    </g>
  </g>
</svg>
